<?xml version="1.0" encoding="UTF-8" standalone="no"?>
<!-- Created with Inkscape (http://www.inkscape.org/) -->

<svg
   width="30.398806mm"
   height="22.800159mm"
   viewBox="0 0 114.89313 86.173833"
   version="1.1"
   id="svg1"
   xml:space="preserve"
   xmlns:inkscape="http://www.inkscape.org/namespaces/inkscape"
   xmlns:sodipodi="http://sodipodi.sourceforge.net/DTD/sodipodi-0.dtd"
   xmlns="http://www.w3.org/2000/svg"
   xmlns:svg="http://www.w3.org/2000/svg"><sodipodi:namedview
     id="namedview1"
     pagecolor="#ffffff"
     bordercolor="#000000"
     borderopacity="0.25"
     inkscape:showpageshadow="2"
     inkscape:pageopacity="0.0"
     inkscape:pagecheckerboard="0"
     inkscape:deskcolor="#d1d1d1"
     inkscape:document-units="mm" /><defs
     id="defs1" /><g
     inkscape:label="Layer 1"
     inkscape:groupmode="layer"
     id="layer1"
     transform="translate(-388.29949,-550.5536)"><path
       style="fill:#fe9a00;fill-opacity:1"
       d="m 393.46289,636.47607 c -2.09243,-0.66064 -3.41481,-1.72951 -4.40002,-3.55654 -0.69702,-1.29258 -0.76338,-1.58176 -0.76338,-3.32695 0,-1.74554 0.0663,-2.03424 0.76408,-3.32827 0.8481,-1.57277 1.54763,-2.25038 3.25085,-3.14897 l 1.14847,-0.60591 h 52.28042 52.28041 l 1.41563,0.76758 c 2.45797,1.33278 3.74477,3.4999 3.75007,6.31557 0.005,2.90723 -1.48792,5.25299 -4.13437,6.49406 l -1.25619,0.58909 -51.71826,0.0422 c -41.12592,0.0335 -51.90248,-0.016 -52.61771,-0.24182 z m 0,-35.97792 c -2.09243,-0.66064 -3.41481,-1.72951 -4.40002,-3.55654 -0.69702,-1.29258 -0.76338,-1.58176 -0.76338,-3.32695 0,-1.74554 0.0663,-2.03424 0.76408,-3.32827 0.8481,-1.57277 1.54763,-2.25038 3.25085,-3.14897 l 1.14847,-0.60592 h 52.28042 52.28041 l 1.41563,0.76759 c 2.45797,1.33278 3.74477,3.4999 3.75007,6.31557 0.005,2.90723 -1.48792,5.25299 -4.13437,6.49405 l -1.25619,0.5891 -51.71826,0.0422 c -41.12592,0.0335 -51.90248,-0.016 -52.61771,-0.24182 z m 0,-35.97792 c -2.09243,-0.66064 -3.41481,-1.72951 -4.40002,-3.55654 -0.69702,-1.29258 -0.76338,-1.58176 -0.76338,-3.32695 0,-1.74554 0.0663,-2.03424 0.76408,-3.32827 0.8481,-1.57277 1.54763,-2.25038 3.25085,-3.14897 l 1.14847,-0.60592 h 52.28042 52.28041 l 1.41695,0.76829 c 2.49821,1.35458 3.75193,3.4647 3.75193,6.31487 0,2.9099 -1.49359,5.25415 -4.13755,6.49405 l -1.25619,0.5891 -51.71826,0.0422 c -41.12592,0.0335 -51.90248,-0.016 -52.61771,-0.24182 z"
       id="path3" /></g></svg>
