<?xml version="1.0" encoding="UTF-8" standalone="no"?>
<!-- Created with Inkscape (http://www.inkscape.org/) -->

<svg
   width="48.641232mm"
   height="64.152802mm"
   viewBox="0 0 183.84088 242.46728"
   version="1.1"
   id="svg1"
   xml:space="preserve"
   sodipodi:docname="pathas1.svg"
   inkscape:version="1.3.2 (091e20e, 2023-11-25, custom)"
   inkscape:export-filename="logo-img.png"
   inkscape:export-xdpi="96"
   inkscape:export-ydpi="96"
   xmlns:inkscape="http://www.inkscape.org/namespaces/inkscape"
   xmlns:sodipodi="http://sodipodi.sourceforge.net/DTD/sodipodi-0.dtd"
   xmlns="http://www.w3.org/2000/svg"
   xmlns:svg="http://www.w3.org/2000/svg"><sodipodi:namedview
     id="namedview1"
     pagecolor="#ffffff"
     bordercolor="#000000"
     borderopacity="0.25"
     inkscape:showpageshadow="2"
     inkscape:pageopacity="0.0"
     inkscape:pagecheckerboard="0"
     inkscape:deskcolor="#d1d1d1"
     inkscape:document-units="mm"
     inkscape:zoom="0.40056951"
     inkscape:cx="-304.56636"
     inkscape:cy="595.40228"
     inkscape:window-width="1920"
     inkscape:window-height="991"
     inkscape:window-x="-9"
     inkscape:window-y="-9"
     inkscape:window-maximized="1"
     inkscape:current-layer="svg1" /><defs
     id="defs1" /><g
     id="layer1"
     transform="translate(-929.05538,-231.66873)"
     style="fill:#fe9a00;fill-opacity:1"><path
       style="fill:#fe9a00;fill-opacity:1"
       d="m 1006.5799,473.03325 c -24.62359,-4.35837 -40.03909,-13.08077 -51.51399,-29.1477 -6.288,-8.80433 -9.8374,-16.63074 -8.0447,-17.73867 0.4884,-0.30184 1.8686,1.37959 3.0671,3.73652 6.9865,13.73932 19.4361,26.58884 31.0881,32.0866 11.7909,5.56331 23.94989,8.00243 39.80949,7.98592 26.5794,-0.0277 48.1458,-7.78842 64.314,-23.14368 7.2243,-6.86106 9.6865,-10.60951 12.9236,-19.67514 8.407,-23.5444 5.0126,-42.5376 -10.0435,-56.19774 -2.144,-1.94527 -8.8868,-4.17166 -9.5117,-3.14068 -0.1233,0.20352 -1.241,4.42004 -2.4836,9.37004 -2.8557,11.37545 -10.8129,28.01153 -16.9637,35.46601 -5.407,6.55286 -14.4899,13.03331 -23.5278,16.78649 -5.2866,2.19541 -7.7647,2.58504 -16.7073,2.62695 -8.8726,0.0416 -11.12,-0.2822 -14.5,-2.08894 -16.75719,-8.9573 -23.08499,-32.87263 -14.55239,-54.99861 1.7235,-4.46893 4.0153,-9.24629 5.0929,-10.61635 1.0777,-1.37005 1.9251,-2.87003 1.8831,-3.33328 -0.042,-0.46325 -4.9379,-3.22778 -10.8798,-6.1434 l -10.8034,-5.30112 -6.3702,2.268 c -9.0419,3.21922 -27.1333,3.28476 -34.0829,0.12347 -6.2714,-2.85278 -7.4574,-6.54585 -3.1938,-9.94547 6.5655,-5.23519 22.7466,-5.65537 36.8321,-0.95644 l 7.9255,2.64399 5.4439,-3.26565 c 6.8275,-4.09567 22.41959,-18.73422 31.16359,-29.25774 5.8575,-7.04958 20.0414,-25.32546 20.0414,-25.82321 0,-0.10158 -5.2875,-0.1847 -11.75,-0.1847 -18.4736,0 -26.12479,-1.50782 -38.98619,-7.68301 -9.075,-4.35724 -15.2638,-13.00348 -15.2638,-21.32471 0,-14.57261 22.2803,-27.08056 42.16469,-23.67077 6.7077,1.15025 15.9993,5.01676 17.3646,7.226 1.4159,2.2909 -0.6778,2.11628 -6.2457,-0.52088 -8.4058,-3.98134 -15.9564,-5.16021 -24.10779,-3.76393 -15.011,2.57128 -26.1758,11.84454 -26.1758,21.74112 0,8.93274 9.7284,18.15446 23.7232,22.48767 14.45659,4.47619 39.20509,5.24172 42.08999,1.30194 16.0804,-21.95971 23.9488,-30.96489 35.2071,-40.29343 7.6287,-6.32105 13.3421,-9 19.1946,-9 16.0128,0 12.8747,22.32615 -4.9578,35.27299 -10.1758,7.38785 -26.9956,14.3823 -39.3278,16.35431 -3.409,0.54512 -4.5541,1.32457 -6.2724,4.26978 -1.1562,1.9816 -5.5523,8.77792 -9.7691,15.10292 -11.2529,16.87854 -22.7596,28.19433 -39.05229,38.40427 l -7.974,4.99703 6.3192,3.25066 c 11.48759,5.90925 12.04629,5.97021 16.46609,1.7965 12.357,-11.66877 22.5716,-16.73687 33.8532,-16.79655 10.2387,-0.0542 16.6335,4.16268 19.5044,12.8614 1.3498,4.08989 2.184,4.05971 10.3606,-0.3748 4.4796,-2.42944 5.0506,-3.17712 7.2063,-9.43578 4.011,-11.64472 12.818,-23.92166 20.5358,-28.6268 4.1621,-2.53738 12.012,-2.81391 14.3214,-0.5045 1.9068,1.90677 1.9871,7.05057 0.1614,10.34567 -2.4306,4.38709 -11.949,13.09987 -21.0899,19.30488 -4.95,3.36015 -9.1191,6.19138 -9.2646,6.29162 -0.1455,0.10024 -0.8541,4.75068 -1.5747,10.33433 l -1.31,10.15207 h 2.2098 c 5.1898,0 12.8439,3.51689 18.091,8.31244 7.9832,7.29628 12.6082,17.39283 13.1584,28.72539 0.5039,10.38076 -1.2831,18.15381 -6.7731,29.46217 -6.0758,12.51482 -18.1694,23.48565 -35.5554,32.25428 -17.2467,8.69841 -44.505,12.86394 -62.8874,9.61025 z m 30.6604,-47.7142 c 11.9588,-5.75195 17.854,-11.85367 24.2097,-25.05766 6.1996,-12.87968 6.3193,-13.23435 7.9912,-23.67622 1.2485,-7.79742 1.2359,-7.91531 -0.8439,-7.84037 -1.1613,0.0418 -3.6547,0.63379 -5.5408,1.31545 -3.0062,1.0864 -3.6975,2.03359 -5.601,7.67392 -3.3068,9.79839 -5.7963,14.02837 -12.1515,20.64721 -5.7716,6.01107 -12.2133,10.28734 -15.4966,10.28734 -2.076,0 -4.8236,-3.69274 -4.8159,-6.47251 0.013,-4.82371 2.4464,-10.09759 6.8278,-14.79923 5.5282,-5.93216 13.3946,-11.9208 20.0492,-15.26321 l 4.8004,-2.41111 0.2113,-6.52697 c 0.1162,-3.58983 -0.06,-6.52697 -0.3912,-6.52697 -0.3313,0 -1.9189,0.68079 -3.528,1.51287 -4.2802,2.21338 -18.2791,5.27735 -27.4751,6.01355 -6.9747,0.55837 -18.1764,-0.44063 -23.697,-2.11335 -1.3177,-0.39928 -2.59009,1.34062 -5.69419,7.78638 -9.2229,19.15169 -7.5994,41.70432 3.8039,52.84326 5.98279,5.84406 9.47609,6.95362 20.67499,6.56683 8.053,-0.27813 9.9506,-0.72891 16.6667,-3.95921 z m 5.418,-28.11646 c 5.1924,-5.64201 10.3295,-14.70901 11.9167,-21.03291 l 0.7166,-2.85505 -6.1444,3.45112 c -6.5626,3.6861 -16.4624,12.65071 -18.6571,16.89471 -0.733,1.41755 -1.6599,4.32135 -2.0598,6.45289 -0.5856,3.12118 -0.3787,4.13027 1.0627,5.18427 2.4704,1.8064 6.1159,-0.43514 13.1653,-8.09503 z m 24.1554,-30.48752 c 4.2882,-1.15468 4.2966,-1.17342 5.768,-12.81027 l 0.6655,-5.26392 -6.1306,3.04175 c -3.3719,1.67296 -6.1614,3.36672 -6.1988,3.76392 -0.8752,9.28742 -0.6986,13.34661 0.5598,12.8637 0.7608,-0.29192 3.162,-1.00975 5.3361,-1.59518 z m -28.2958,-8.1369 c 3.2446,-0.5998 8.7407,-2.22803 12.2135,-3.61829 6.9284,-2.77362 6.9577,-2.86169 3.4096,-10.22663 -2.8817,-5.98149 -6.1502,-7.57014 -15.482,-7.52498 -6.4812,0.0314 -9.2082,0.53175 -13.1731,2.41717 -7.4692,3.55178 -21.4944,15.36541 -20.024,16.86643 2.7876,2.84555 22.2903,4.07645 33.056,2.0863 z m -78.28929,-8.37307 c 10.6592,-2.25883 11.2448,-2.97669 4.7573,-5.83123 -11.4821,-5.05218 -19.13,-5.59718 -28.1729,-2.00766 -4.5638,1.8116 -5.3864,3.70604 -2.4458,5.63278 5.3234,3.48805 15.6537,4.36927 25.8614,2.20611 z m 134.84579,-20.15349 c 7.4341,-5.87913 11.6317,-10.50594 13.4545,-14.83052 1.4331,-3.39982 0.987,-5.19833 -1.6378,-6.60311 -6.4437,-3.44856 -22.0162,14.03038 -24.4746,27.4708 l -0.717,3.92005 3.3932,-2.37339 c 1.8662,-1.30536 6.358,-4.71809 9.9817,-7.58383 z m -38.0885,-52.03063 c 4.125,-1.34857 11.3182,-4.34202 15.9849,-6.6521 15.6565,-7.75017 26.4156,-21.42128 24.5759,-31.22758 -2.6549,-14.15175 -24.4149,-2.92115 -41.7391,21.54206 -6.1221,8.64478 -9.9649,14.47792 -11.7492,17.83415 -1.218,2.29124 -1.1668,2.33173 2.0894,1.65211 1.8359,-0.38318 6.7131,-1.80007 10.8381,-3.14864 z"
       id="path1-6" /></g></svg>
