<?xml version="1.0" encoding="UTF-8" standalone="no"?>
<!-- Created with Inkscape (http://www.inkscape.org/) -->

<svg
   width="16.291239mm"
   height="17.746437mm"
   viewBox="0 0 61.573187 67.07315"
   version="1.1"
   id="svg1"
   xml:space="preserve"
   xmlns:inkscape="http://www.inkscape.org/namespaces/inkscape"
   xmlns:sodipodi="http://sodipodi.sourceforge.net/DTD/sodipodi-0.dtd"
   xmlns="http://www.w3.org/2000/svg"
   xmlns:svg="http://www.w3.org/2000/svg"><sodipodi:namedview
     id="namedview1"
     pagecolor="#ffffff"
     bordercolor="#000000"
     borderopacity="0.25"
     inkscape:showpageshadow="2"
     inkscape:pageopacity="0.0"
     inkscape:pagecheckerboard="0"
     inkscape:deskcolor="#d1d1d1"
     inkscape:document-units="mm" /><defs
     id="defs1" /><g
     inkscape:label="Layer 1"
     inkscape:groupmode="layer"
     id="layer1"
     transform="translate(-694.36669,-416.13532)"><path
       style="fill:#fe9a00;fill-opacity:1"
       d="m 708.46293,483.06613 c -6.0085,-1.01691 -11.06608,-5.23158 -13.09028,-10.9086 -0.5497,-1.54167 -1.006,-3.85149 -1.006,-5.09242 0,-1.17452 2.73192,-28.84053 2.98454,-30.22438 0.53448,-2.92775 2.50923,-5.24013 5.42257,-6.34969 0.97317,-0.37064 1.20843,-0.3931 4.72125,-0.45074 l 3.69704,-0.0607 0.0874,-1.32819 c 0.0969,-1.47196 0.64301,-3.3999 1.37542,-4.85534 1.77233,-3.52192 4.60073,-5.9109 8.54887,-7.22069 1.2194,-0.40454 1.47174,-0.43292 3.91054,-0.43975 2.93045,-0.008 3.64131,0.13102 5.84571,1.14489 3.01362,1.38606 5.26226,3.53678 6.72842,6.43543 0.85346,1.68731 1.45783,3.94987 1.45783,5.45756 v 0.83343 h 3.2726 c 2.75857,0 3.4589,0.0476 4.45872,0.30336 1.64956,0.42188 2.59931,0.97063 3.8474,2.22293 1.28929,1.29364 2.00703,2.64625 2.30626,4.3462 0.1141,0.64825 0.84135,7.56131 1.61611,15.36236 1.54536,15.56028 1.54405,15.53154 0.83486,18.32937 -0.463,1.82655 -1.7254,4.48494 -2.80284,5.90228 -1.06414,1.39983 -3.19294,3.36903 -4.56982,4.2272 -1.59835,0.9962 -3.68113,1.8248 -5.53809,2.20322 -1.51821,0.3094 -1.94759,0.31674 -17.48125,0.29915 -8.75864,-0.01 -16.24091,-0.0715 -16.62726,-0.13693 z m 20.17851,-25.45117 c 4.12463,-1.05545 7.70962,-4.10429 9.3807,-7.97779 0.27309,-0.63301 0.609,-1.56499 0.74647,-2.07106 0.28925,-1.06489 0.46543,-3.47114 0.31345,-4.28125 -0.22565,-1.20286 -1.71817,-2.2134 -3.01263,-2.03978 -1.35697,0.18201 -2.44116,1.40039 -2.44662,2.74942 -0.0151,3.72196 -2.74616,7.22412 -6.36958,8.1679 -4.51872,1.17698 -9.29048,-1.81508 -10.26508,-6.43655 -0.12451,-0.59041 -0.22909,-1.34952 -0.23241,-1.6869 -0.0254,-2.58108 -3.19313,-3.76841 -4.89194,-1.83358 -0.57371,0.65342 -0.69063,1.26131 -0.58434,3.03804 0.37437,6.2574 5.43288,11.66919 11.84121,12.66815 1.3685,0.21333 4.10186,0.0665 5.52077,-0.2966 z m 4.90988,-28.48429 c -0.45872,-3.67147 -3.08491,-6.58839 -6.59678,-7.32707 -1.35423,-0.28485 -2.1743,-0.28472 -3.52716,5.8e-4 -3.53385,0.74524 -6.13552,3.63469 -6.59678,7.32649 l -0.10949,0.87632 h 8.46985 8.46985 z"
       id="path2"
       inkscape:export-filename="store-img.svg"
       inkscape:export-xdpi="96"
       inkscape:export-ydpi="96" /></g></svg>
